<?xml version="1.0" encoding="UTF-8" standalone="no"?>
<svg
   xmlns:dc="http://purl.org/dc/elements/1.1/"
   xmlns:cc="http://creativecommons.org/ns#"
   xmlns:rdf="http://www.w3.org/1999/02/22-rdf-syntax-ns#"
   xmlns:svg="http://www.w3.org/2000/svg"
   xmlns="http://www.w3.org/2000/svg"
   xmlns:sodipodi="http://sodipodi.sourceforge.net/DTD/sodipodi-0.dtd"
   xmlns:inkscape="http://www.inkscape.org/namespaces/inkscape"
   inkscape:version="1.0 (6e3e5246a0, 2020-05-07)"
   sodipodi:docname="l.svg"
   id="svg8"
   viewBox="0 0 3.4395837 1.8721479"
   version="1.1"
   height="1.8721479mm"
   width="3.4395835mm">
  <metadata
     id="metadata14">
    <rdf:RDF>
      <cc:Work
         rdf:about="">
        <dc:format>image/svg+xml</dc:format>
        <dc:type
           rdf:resource="http://purl.org/dc/dcmitype/StillImage" />
        <dc:title></dc:title>
      </cc:Work>
    </rdf:RDF>
  </metadata>
  <defs
     id="defs12" />
  <sodipodi:namedview
     inkscape:current-layer="svg8"
     inkscape:window-maximized="1"
     inkscape:window-y="27"
     inkscape:window-x="0"
     inkscape:cy="33.683118"
     inkscape:cx="61.881188"
     inkscape:zoom="2.0411944"
     fit-margin-bottom="0"
     fit-margin-right="0"
     fit-margin-left="0"
     fit-margin-top="0"
     showgrid="false"
     id="namedview10"
     inkscape:window-height="715"
     inkscape:window-width="1360"
     inkscape:pageshadow="2"
     inkscape:pageopacity="0"
     guidetolerance="10"
     gridtolerance="10"
     objecttolerance="10"
     borderopacity="1"
     bordercolor="#666666"
     pagecolor="#ffffff" />
  <g
     id="g6"
     transform="matrix(0.10504023,0,0,0.10504023,-5.7324412,-4.7810645)">
    <g
       id="g4"
       transform="matrix(0.35278,0,0,-0.35278,75.954,60.534)">
      <path
         id="path2"
         fill="#ffffff"
         d="m 0,0 -10.323,10.323 0.03,0.03 L -24.234,24.294 -14.12,34.406 0,20.287 14.12,34.406 24.264,24.264 Z m -28.389,0.21 -24.264,24.263 10.142,10.143 10.324,-10.323 -0.029,-0.029 13.941,-13.942 z M 0,28.239 -14.12,42.358 -28.21,28.27 -42.511,42.569 -60.605,24.473 -28.389,-7.744 -14.299,6.347 0,-7.953 32.216,24.264 14.12,42.36 Z" />
    </g>
  </g>
</svg>
